<?xml version="1.0" standalone="no"?>
<!DOCTYPE svg PUBLIC "-//W3C//DTD SVG 20010904//EN"
"http://www.w3.org/TR/2001/REC-SVG-20010904/DTD/svg10.dtd">
<svg version="1.0" xmlns="http://www.w3.org/2000/svg"
width="200px" height="100px" viewBox="0 0 1564.000000 464.000000"
preserveAspectRatio="xMidYMid meet">
<metadata>
Created by potrace 1.16, written by Peter Selinger 2001-2019
</metadata>
<g transform="translate(0.000000,464.000000) scale(0.100000,-0.100000)"
fill="#ffffff" stroke="none">
<path d="M3429 3892 c-140 -84 -405 -320 -833 -743 -193 -190 -361 -351 -374
-358 -26 -14 -458 -65 -472 -56 -15 9 -12 37 8 66 21 33 360 409 552 614 106
113 243 264 252 279 16 23 7 50 -28 83 -29 27 -42 33 -62 28 -51 -13 -163
-100 -352 -274 -141 -130 -702 -690 -788 -787 -35 -41 -78 -78 -100 -87 -43
-19 -250 -54 -372 -63 -77 -6 -311 9 -367 23 -22 5 -23 3 -23 -67 l0 -72 64
-63 c101 -99 139 -117 258 -123 72 -3 101 -9 105 -19 3 -7 -17 -44 -44 -81
-95 -131 -195 -316 -233 -434 -33 -98 -23 -148 40 -210 65 -66 97 -66 136 0
33 58 123 188 269 392 284 398 267 380 385 400 61 10 96 16 238 40 31 5 84 14
117 19 34 6 63 7 68 2 5 -5 -16 -40 -50 -82 -171 -214 -308 -433 -354 -568
-37 -106 -19 -236 40 -298 41 -43 60 -31 130 79 89 139 211 309 435 607 105
140 202 269 216 287 34 45 75 63 172 75 46 6 115 14 153 19 39 5 107 13 153
19 45 6 117 15 160 21 42 5 106 14 142 19 36 5 98 14 139 20 88 11 98 19 81
60 -20 49 -124 100 -237 117 -26 3 -68 16 -93 27 -32 15 -75 22 -150 26 -96 6
-105 8 -108 27 -5 33 158 213 551 610 196 199 357 366 357 372 0 20 -83 82
-109 82 -14 0 -47 -13 -72 -28z"/>
<path d="M10465 3770 c-246 -34 -569 -266 -802 -575 -104 -139 -225 -340 -264
-439 -52 -135 -59 -223 -13 -185 9 7 37 45 62 84 58 90 273 304 422 420 251
196 603 407 753 450 69 20 80 14 79 -43 -1 -50 -36 -134 -165 -398 -327 -665
-619 -1103 -1030 -1544 -95 -101 -120 -139 -111 -164 6 -15 116 -95 171 -125
23 -12 33 -11 78 3 120 38 297 181 663 539 385 375 754 714 1032 948 463 390
901 624 1225 655 39 4 76 11 83 17 7 5 12 32 12 62 0 123 -111 193 -320 203
-95 4 -113 2 -185 -22 -216 -73 -531 -277 -855 -555 -236 -202 -859 -831
-1100 -1109 -30 -35 -56 -59 -58 -53 -5 14 83 123 205 256 189 207 361 463
504 750 140 285 180 440 147 573 -20 81 -78 158 -147 196 -91 49 -260 74 -386
56z"/>
<path d="M14155 3577 c-349 -146 -691 -369 -954 -622 -162 -156 -367 -405
-508 -615 -57 -85 -45 -75 -288 -237 -265 -176 -486 -305 -501 -290 -10 10 15
65 62 137 39 59 297 376 411 504 70 79 58 123 -50 181 -35 19 -38 19 -66 2
l-30 -18 -16 31 c-27 52 -70 65 -163 52 -306 -43 -776 -386 -1073 -782 -108
-144 -149 -228 -149 -309 0 -34 6 -74 14 -89 19 -36 75 -88 107 -100 94 -36
338 108 576 342 51 49 95 88 97 85 3 -3 -2 -59 -10 -124 -19 -148 -10 -227 33
-264 23 -20 35 -23 79 -19 87 7 277 131 609 397 82 66 151 119 152 117 2 -2
-4 -36 -13 -76 -14 -62 -15 -87 -5 -166 19 -159 46 -219 120 -262 42 -24 55
-27 146 -27 121 0 178 16 295 83 130 75 259 168 490 353 339 272 632 529 661
581 18 31 15 60 -7 79 -11 9 -36 -5 -121 -68 -581 -430 -1102 -743 -1238 -743
-41 0 -60 35 -60 109 0 130 72 213 340 393 558 374 977 736 1228 1061 112 145
123 176 88 245 -50 98 -123 114 -256 59z m-65 -244 c0 -34 -383 -430 -643
-665 -186 -168 -327 -265 -327 -226 0 57 413 477 719 731 132 110 251 186 251
160z m-1975 -862 c-9 -16 -353 -313 -520 -451 -251 -206 -369 -279 -349 -217
42 132 418 485 649 609 94 50 239 89 220 59z"/>
<path d="M3635 2699 c-144 -24 -396 -157 -599 -316 -100 -78 -360 -342 -431
-438 -85 -114 -152 -229 -163 -280 -22 -101 22 -200 103 -236 39 -17 46 -18
100 -4 32 9 83 29 114 45 92 49 270 187 370 287 52 51 98 93 103 93 5 0 7 -12
4 -27 -3 -16 -10 -74 -17 -129 -14 -128 -1 -203 39 -235 43 -33 112 -23 203
31 181 106 490 344 836 642 56 49 104 88 108 88 3 0 -6 -17 -22 -37 -26 -36
-57 -74 -203 -248 -36 -42 -112 -122 -168 -176 -89 -85 -105 -105 -109 -138
-8 -57 17 -98 69 -112 99 -26 175 25 835 560 30 24 56 41 58 39 3 -2 -37 -60
-87 -129 -136 -185 -167 -267 -147 -388 12 -78 21 -100 54 -140 47 -55 99 -76
190 -76 70 0 89 4 150 33 80 38 166 92 275 172 100 73 358 278 445 353 114 99
110 96 96 69 -7 -12 -85 -97 -174 -189 -162 -165 -162 -166 -161 -210 1 -65
35 -95 106 -97 45 0 63 6 118 39 109 66 374 269 674 518 32 26 60 46 63 43 3
-2 -26 -46 -63 -98 -150 -207 -173 -255 -174 -359 0 -176 95 -279 257 -279 89
0 233 72 418 209 52 39 98 71 101 71 3 0 4 -7 0 -15 -10 -27 14 -118 40 -153
15 -19 46 -43 69 -53 39 -17 46 -18 101 -3 32 8 83 28 112 45 128 72 320 225
402 319 54 63 84 78 75 37 -14 -65 -26 -228 -20 -276 14 -113 94 -142 214 -78
182 97 654 466 1116 872 100 88 104 93 105 131 0 72 -12 67 -299 -138 -149
-106 -341 -239 -428 -294 -180 -116 -384 -234 -402 -234 -18 0 -6 44 29 105
35 59 121 168 328 415 181 215 183 219 92 282 -61 42 -75 45 -107 23 -20 -14
-23 -13 -42 19 -29 46 -66 60 -143 51 -87 -10 -195 -47 -314 -109 -185 -96
-328 -203 -534 -396 -247 -232 -687 -515 -822 -528 l-51 -5 5 76 c6 87 23 126
103 231 48 63 109 133 392 444 93 103 90 135 -19 166 -101 29 -125 21 -243
-73 -171 -138 -595 -445 -603 -436 -3 2 1 13 9 24 8 10 78 108 157 217 169
234 171 242 83 287 -30 15 -69 27 -87 27 -36 0 -65 -28 -129 -125 -25 -37 -64
-76 -109 -109 -39 -28 -196 -144 -349 -259 -460 -343 -655 -461 -761 -462 -47
0 -51 2 -55 25 -4 32 17 126 37 165 32 62 128 184 271 340 20 22 87 95 149
163 142 156 145 180 23 216 -99 29 -124 21 -241 -74 -81 -66 -252 -194 -395
-296 -201 -143 -206 -147 -210 -142 -3 2 28 49 68 104 129 176 224 308 236
332 22 41 6 68 -53 96 -30 14 -68 26 -84 26 -29 0 -32 -3 -132 -116 -26 -29
-422 -310 -630 -447 -186 -122 -416 -257 -439 -257 -35 0 27 116 136 251 80
100 246 297 321 382 80 91 71 132 -41 192 -35 19 -38 19 -66 2 l-29 -17 -21
33 c-34 55 -74 65 -186 46z m85 -228 c0 -12 -373 -336 -560 -487 -285 -230
-370 -266 -269 -115 113 169 436 452 629 551 86 44 200 73 200 51z m4570 1 c0
-14 -362 -327 -585 -507 -195 -156 -285 -211 -285 -171 0 59 275 352 465 494
104 79 280 176 335 185 44 8 70 7 70 -1z"/>
</g>
</svg>